<svg width="26" height="23" viewBox="0 0 26 23" fill="none" xmlns="http://www.w3.org/2000/svg">
<path fill-rule="evenodd" clip-rule="evenodd" d="M15.9802 1.91663C19.5136 1.91663 21.5406 3.52567 21.5406 6.32879V20.2591C21.5406 20.8437 21.2136 21.3698 20.6636 21.664C20.1156 21.9592 19.4552 21.965 18.9011 21.6775L12.6927 18.4508L6.4271 21.6842C6.15627 21.8241 5.8594 21.895 5.56148 21.895C5.25419 21.895 4.9469 21.8193 4.66773 21.6679C4.11877 21.3737 3.79169 20.8475 3.79169 20.2639V6.15342C3.79169 3.4605 5.81981 1.91663 9.35627 1.91663H15.9802ZM15.9802 3.35413H9.35627C6.70106 3.35413 5.35419 4.29521 5.35419 6.15342V20.2639C5.35419 20.354 5.41044 20.4029 5.45731 20.4278C5.50419 20.4546 5.57815 20.4738 5.66356 20.4297L12.3115 16.9989C12.549 16.8772 12.8396 16.8762 13.0781 16.9998L19.6688 20.4249C19.7552 20.4709 19.8292 20.4498 19.8761 20.424C19.9229 20.3981 19.9781 20.3492 19.9781 20.2591L19.9778 6.21959C19.9699 5.39478 19.7964 3.35413 15.9802 3.35413ZM16.4373 8.36477C16.8686 8.36477 17.2186 8.68677 17.2186 9.08352C17.2186 9.48027 16.8686 9.80227 16.4373 9.80227H8.8144C8.38315 9.80227 8.03315 9.48027 8.03315 9.08352C8.03315 8.68677 8.38315 8.36477 8.8144 8.36477H16.4373Z" fill="black"/>
</svg>
